<?xml version="1.0" standalone="no"?>
<!DOCTYPE svg PUBLIC "-//W3C//DTD SVG 20010904//EN"
 "http://www.w3.org/TR/2001/REC-SVG-20010904/DTD/svg10.dtd">
<svg version="1.0" xmlns="http://www.w3.org/2000/svg"
 width="512.000000pt" height="512.000000pt" viewBox="0 0 512.000000 512.000000"
 preserveAspectRatio="xMidYMid meet">

<g transform="translate(0.000000,512.000000) scale(0.100000,-0.100000)"
fill="#FFFFFF" stroke="none">
<path d="M2381 4989 c-242 -18 -505 -79 -731 -170 -235 -94 -287 -133 -261
-197 7 -17 25 -35 42 -43 27 -11 39 -8 137 39 113 53 234 100 318 125 l51 15
-92 -92 c-102 -100 -213 -246 -290 -379 l-50 -87 -269 0 -269 0 44 40 c24 22
80 68 124 102 153 120 166 142 122 194 -17 19 -33 27 -55 27 -76 0 -421 -315
-584 -533 -110 -148 -213 -322 -279 -471 l-53 -119 -55 0 c-32 0 -73 -8 -96
-19 -51 -23 -111 -89 -124 -138 -15 -53 -15 -1393 0 -1446 13 -49 73 -115 124
-138 23 -11 64 -19 96 -19 l55 0 53 -119 c180 -408 489 -772 871 -1026 413
-275 851 -407 1350 -407 561 0 1059 171 1510 520 125 97 334 311 432 442 110
148 213 322 279 471 l53 119 55 0 c32 0 73 8 96 19 51 23 111 89 124 138 15
53 15 1393 0 1446 -13 49 -73 115 -124 138 -23 11 -64 19 -96 19 l-55 0 -53
119 c-242 548 -717 1012 -1273 1245 -352 147 -755 214 -1127 185z m99 -469 l0
-320 -401 0 -401 0 23 38 c144 240 342 436 534 528 61 29 195 72 233 73 9 1
12 -69 12 -319z m300 288 c131 -40 269 -130 397 -260 81 -81 195 -228 241
-308 l23 -40 -401 0 -400 0 0 320 0 321 38 -7 c20 -4 66 -15 102 -26z m526
-89 c143 -49 291 -118 422 -196 104 -62 297 -204 375 -278 l49 -45 -269 0
-268 0 -50 87 c-77 133 -188 279 -291 381 -51 50 -91 92 -89 92 1 0 56 -18
121 -41z m-1876 -672 c0 -1 -15 -38 -33 -82 -44 -105 -100 -273 -135 -410
l-29 -110 -386 -3 c-313 -2 -387 0 -387 11 0 24 118 251 181 347 34 52 89 130
123 172 l61 78 303 0 c166 0 302 -1 302 -3z m1050 -302 l0 -305 -545 0 -545 0
6 28 c37 154 113 382 174 517 l29 65 441 0 440 0 0 -305z m1070 240 c61 -135
137 -363 174 -517 l6 -28 -545 0 -545 0 0 305 0 305 440 0 441 0 29 -65z m795
2 c86 -107 191 -272 254 -398 34 -67 61 -128 61 -136 0 -10 -28 -13 -127 -13
-116 0 -129 -2 -150 -22 -31 -29 -30 -72 2 -103 l24 -25 256 0 256 0 24 -25
25 -24 0 -681 0 -681 -25 -24 -24 -25 -2361 0 -2361 0 -24 25 -25 24 0 681 0
681 25 24 24 25 1981 0 1981 0 24 25 c32 31 33 74 2 103 -21 19 -35 22 -161
24 l-139 3 -29 110 c-35 137 -91 305 -135 410 -18 44 -33 81 -33 82 0 2 136 3
303 3 l302 0 50 -63z m-3083 -2422 c32 -125 78 -266 119 -373 16 -40 29 -77
29 -82 0 -6 -113 -10 -304 -10 l-304 0 -50 63 c-78 98 -168 242 -233 372 -32
65 -59 125 -59 132 0 11 74 13 387 11 l386 -3 29 -110z m1218 -175 l0 -290
-160 0 c-147 0 -162 -2 -180 -20 -30 -30 -27 -83 6 -109 24 -19 40 -21 180
-21 l154 0 0 -335 0 -336 -37 7 c-76 13 -206 63 -285 111 -96 57 -245 195
-334 309 -62 79 -154 220 -154 236 0 4 52 8 115 8 123 0 157 9 174 47 15 34
14 47 -10 76 l-20 27 -172 2 -172 3 -19 40 c-49 104 -135 359 -170 508 l-6 27
545 0 545 0 0 -290z m1244 263 c-35 -149 -121 -405 -170 -508 l-19 -40 -448
-3 -447 -2 0 290 0 290 545 0 545 0 -6 -27z m936 13 c0 -8 -29 -70 -64 -139
-64 -127 -160 -279 -236 -374 l-42 -53 -304 0 c-191 0 -304 4 -304 10 0 5 13
42 29 82 38 97 94 273 121 378 11 47 23 91 25 98 7 19 775 18 775 -2z m-3113
-818 c96 -162 180 -275 288 -384 55 -56 96 -100 90 -99 -345 102 -660 281
-925 525 l-65 60 276 0 276 0 60 -102z m1903 94 c0 -14 -91 -155 -150 -232
-82 -108 -242 -256 -337 -313 -80 -48 -210 -98 -285 -111 l-38 -7 0 336 0 335
405 0 c223 0 405 -3 405 -8z m670 -52 c-166 -153 -393 -306 -596 -401 -81 -38
-320 -129 -339 -129 -1 0 43 46 99 103 109 110 193 222 289 385 l60 102 276 0
276 0 -65 -60z"/>
<path d="M1540 3007 c-48 -24 -50 -41 -44 -327 4 -173 3 -262 -3 -255 -6 6
-90 127 -188 270 -98 143 -189 272 -203 288 -32 34 -82 37 -112 5 -19 -21 -20
-33 -20 -426 0 -244 4 -411 10 -422 15 -29 61 -40 98 -24 18 7 33 14 34 16 1
2 5 127 8 280 l5 276 190 -274 c104 -151 195 -280 203 -287 27 -22 83 -13 109
17 l24 28 -3 399 c-3 383 -4 399 -23 418 -28 27 -56 33 -85 18z"/>
<path d="M2472 3004 c-20 -8 -34 -22 -38 -39 -7 -28 137 -780 157 -816 6 -11
26 -27 46 -35 31 -14 38 -13 71 3 43 21 37 8 138 336 38 122 71 212 75 205 3
-7 39 -119 79 -248 40 -129 78 -247 86 -261 26 -51 111 -56 151 -8 12 15 163
756 163 802 0 62 -89 92 -127 43 -13 -16 -34 -103 -68 -275 -27 -138 -52 -251
-55 -251 -4 0 -26 62 -49 138 -130 419 -120 392 -153 406 -38 16 -63 11 -86
-19 -10 -12 -54 -138 -97 -279 -55 -176 -82 -252 -87 -239 -4 10 -28 126 -53
257 -26 132 -50 247 -55 257 -15 28 -61 39 -98 23z"/>
<path d="M3780 3010 c-167 -28 -261 -162 -219 -313 19 -71 79 -117 229 -177
74 -29 149 -64 167 -76 61 -46 49 -124 -27 -166 -28 -15 -49 -19 -105 -15 -77
4 -120 22 -178 73 -43 39 -73 43 -111 13 -19 -15 -26 -29 -26 -56 0 -99 240
-211 391 -183 105 20 185 78 225 165 45 96 27 183 -56 265 -49 50 -70 61 -201
113 -168 68 -187 86 -158 151 30 66 168 75 260 17 83 -51 152 -34 152 39 0 36
-15 55 -73 92 -74 48 -187 72 -270 58z"/>
<path d="M1836 2989 l-26 -20 0 -410 c0 -392 1 -410 19 -428 28 -28 67 -33
244 -29 146 3 158 5 178 25 32 31 30 80 -5 110 -25 22 -35 23 -157 23 l-129 0
0 110 0 110 119 0 c105 0 121 2 145 21 34 27 36 79 4 109 -19 18 -35 20 -145
20 l-123 0 0 115 0 115 134 0 c147 0 169 7 182 62 5 22 0 33 -24 58 l-30 30
-180 0 c-166 0 -181 -2 -206 -21z"/>
</g>
</svg>
